<svg width="218" height="55" viewBox="0 0 218 55" fill="none" xmlns="http://www.w3.org/2000/svg">
<g clip-path="url(#clip0_156_1326)">
<path d="M55.3113 54.6508C55.3113 39.5619 42.9272 27.3254 27.6562 27.3254V54.6508H55.3113Z" fill="#00A651"/>
<path d="M27.655 54.6508C27.655 39.5619 15.271 27.3254 0 27.3254V54.6508H27.655Z" fill="#00A651"/>
<path d="M27.6562 0C35.2917 0 41.4897 6.1124 41.4897 13.6685C41.4897 21.2246 35.3035 27.337 27.6562 27.337V0Z" fill="#5B4099"/>
<path d="M13.8321 0C21.4676 0 27.6537 6.1124 27.6537 13.6685C27.6537 21.2246 21.4676 27.337 13.8203 27.337V0H13.8321Z" fill="#9C248A"/>
<path d="M0 0C7.63548 0 13.8334 6.1124 13.8334 13.6685C13.8334 21.2246 7.63548 27.3254 0 27.3254V0Z" fill="#5B4099"/>
<path d="M65.5703 27.4418H74.5844C82.1256 27.4418 85.908 30.1079 85.908 35.4519C85.908 39.3173 83.8695 41.9136 79.7926 43.2642L86.7093 54.6507H81.1476L74.8436 44.0675H70.4839V54.6507H65.5703V27.4418ZM70.4839 31.7961V39.6084C71.3205 39.7015 72.1217 39.7597 72.8876 39.7597C75.421 39.7597 77.4006 39.4919 78.8264 38.9447C80.2403 38.3975 80.9591 37.2682 80.9591 35.5567C80.9591 34.0781 80.3464 33.0768 79.1327 32.5645C77.9073 32.0523 76.2341 31.7961 74.1013 31.7961H70.4957H70.4839Z" fill="#231F20"/>
<path d="M91.1172 54.6508V27.4419H109.193V31.7963H96.019V38.6305H107.684V43.0314H96.019V50.2615H109.193V54.6625H91.1172V54.6508Z" fill="#231F20"/>
<path d="M112.207 27.4419H135.137V31.7963H126.123V54.6508H121.209V31.7963H112.195V27.4419H112.207Z" fill="#231F20"/>
<path d="M150.364 27.0925C152.897 27.0925 155.195 27.6514 157.245 28.7807C159.295 29.8984 160.921 31.5051 162.123 33.5775C163.325 35.6615 163.926 38.0599 163.926 40.8076C163.926 43.5553 163.337 46.0002 162.147 48.1541C160.957 50.3197 159.331 51.9962 157.233 53.1954C155.148 54.4062 152.803 55 150.199 55C147.866 55 145.662 54.4645 143.612 53.3933C141.562 52.3222 139.9 50.7272 138.628 48.6198C137.355 46.5125 136.719 43.986 136.719 41.0521C136.719 38.3161 137.32 35.8944 138.522 33.7754C139.723 31.6681 141.361 30.0265 143.423 28.8506C145.497 27.6863 147.795 27.0925 150.34 27.0925H150.364ZM150.163 31.5982C148.69 31.5982 147.324 31.9242 146.063 32.5646C144.79 33.2049 143.753 34.2178 142.952 35.58C142.151 36.9539 141.75 38.677 141.75 40.7494C141.75 42.6937 142.139 44.4052 142.905 45.8722C143.671 47.3391 144.72 48.4685 146.063 49.2602C147.394 50.0519 148.879 50.4477 150.517 50.4477C151.954 50.4477 153.309 50.1217 154.594 49.4581C155.878 48.7945 156.927 47.7583 157.728 46.3379C158.529 44.9175 158.93 43.1594 158.93 41.0405C158.93 38.9215 158.494 37.1169 157.634 35.6965C156.762 34.2761 155.666 33.2399 154.323 32.5762C152.991 31.9126 151.601 31.5866 150.163 31.5866V31.5982Z" fill="#231F20"/>
<path d="M181.27 27.0925C183.803 27.0925 186.101 27.6514 188.151 28.7807C190.202 29.8984 191.828 31.5051 193.029 33.5775C194.231 35.6615 194.832 38.0599 194.832 40.8076C194.832 43.5553 194.243 46.0002 193.053 48.1541C191.863 50.3197 190.237 51.9962 188.139 53.1954C186.054 54.4062 183.709 55 181.105 55C178.772 55 176.568 54.4645 174.518 53.3933C172.468 52.3222 170.806 50.7272 169.534 48.6198C168.261 46.5125 167.625 43.986 167.625 41.0521C167.625 38.3161 168.226 35.8944 169.428 33.7754C170.63 31.6681 172.268 30.0265 174.33 28.8506C176.403 27.6863 178.701 27.0925 181.246 27.0925H181.27ZM181.07 31.5982C179.597 31.5982 178.23 31.9242 176.969 32.5646C175.696 33.2049 174.66 34.2178 173.858 35.58C173.057 36.9539 172.656 38.677 172.656 40.7494C172.656 42.6937 173.045 44.4052 173.811 45.8722C174.577 47.3391 175.626 48.4685 176.969 49.2602C178.301 50.0519 179.785 50.4477 181.423 50.4477C182.861 50.4477 184.216 50.1217 185.5 49.4581C186.784 48.7945 187.833 47.7583 188.634 46.3379C189.436 44.9175 189.836 43.1594 189.836 41.0405C189.836 38.9215 189.4 37.1169 188.54 35.6965C187.668 34.2761 186.572 33.2399 185.229 32.5762C183.898 31.9126 182.507 31.5866 181.07 31.5866V31.5982Z" fill="#231F20"/>
<path d="M199.969 27.4418H204.882V50.2498H217.997V54.6507H199.969V27.4418Z" fill="#231F20"/>
</g>
<defs>
<clipPath id="clip0_156_1326">
<rect width="218" height="55" fill="white"/>
</clipPath>
</defs>
</svg>
